Coordinates
version=1
nRows=12
nColumns=42
inDegrees=yes

Units are S.I. units (second, meters, Newtons, ...)
If the header above contains a line with 'inDegrees', this indicates whether rotational values are in degrees (yes) or radians (no).

endheader
time	pelvis_tilt	pelvis_list	pelvis_rotation	pelvis_tx	pelvis_ty	pelvis_tz	hip_flexion_r	hip_adduction_r	hip_rotation_r	knee_angle_r	knee_adduction_r	knee_angle_r_beta	ankle_angle_r	subtalar_angle_r	mtp_angle_r	hip_flexion_l	hip_adduction_l	hip_rotation_l	knee_angle_l	knee_adduction_l	knee_angle_l_beta	ankle_angle_l	subtalar_angle_l	mtp_angle_l	lumbar_extension	lumbar_bending	lumbar_rotation	arm_flex_r	arm_add_r	arm_rot_r	elbow_flex_r	pro_sup_r	wrist_flex_r	wrist_dev_r	arm_flex_l	arm_add_l	arm_rot_l	elbow_flex_l	pro_sup_l	wrist_flex_l	wrist_dev_l
      1.16000000	      8.49273598	      0.56851366	     -4.31169844	     -0.25200254	      0.98562732	      0.26903221	     11.64700923	     -5.15080753	     -6.32695540	     46.18597725	      0.96752234	      0.80609737	     15.93454874	     -5.06888198	     -7.56239067	    -12.95560234	      3.53909766	     -8.33555060	      3.78831888	      2.82758231	      0.06611864	     14.39255506	     18.65472509	     -7.56239067	    -19.11768008	      1.68878554	     -3.84115592	    -12.98019974	    -14.21488567	     12.21859522	     35.32712109	     90.00000001	      0.00000000	      0.00000000	      1.06906160	    -16.79939388	      1.49910273	     44.63377106	     90.00000001	      0.00000000	      0.00000000
      1.17000000	      8.45900738	      0.47492551	     -4.09147602	     -0.23841740	      0.98441191	      0.26910511	     12.45326055	     -4.82998131	     -6.27506524	     42.86228232	      1.39835031	      0.74808795	     15.70753641	     -5.42253283	     -7.55955148	    -14.07016753	      3.47812039	     -8.21079668	      3.30530506	      2.81856432	      0.05768846	     14.97304176	     19.09368081	     -7.55955148	    -19.09397815	      1.88082090	     -4.03250835	    -13.48105813	    -13.87702719	     11.89661352	     35.18675404	     90.00000001	      0.00000000	      0.00000000	      1.80626657	    -17.08274181	      1.35015611	     45.38525517	     90.00000001	      0.00000000	      0.00000000
      1.18000000	      8.46297862	      0.44171173	     -3.89838367	     -0.22480695	      0.98287691	      0.26933125	     13.09729022	     -4.57167079	     -6.31692029	     39.28404403	      1.72640844	      0.68563591	     15.42374761	     -5.51058566	     -7.55680922	    -15.17591775	      3.47510120	     -8.13143223	      2.92079936	      2.78954726	      0.05097757	     15.62287228	     19.55569339	     -7.55680922	    -19.10314780	      1.97387273	     -4.23245118	    -13.93169490	    -13.50849260	     11.58502924	     35.03514828	     90.00000001	      0.00000000	      0.00000000	      2.52832829	    -17.38708511	      1.19272512	     46.13221495	     90.00000001	      0.00000000	      0.00000000
      1.19000000	      8.04254549	      0.94223658	     -3.91850114	     -0.21148284	      0.98011275	      0.26951188	     14.46772863	     -4.89202078	     -6.68318101	     36.03509500	      1.67917141	      0.62893105	     15.18077367	     -5.11201074	     -7.55610479	    -15.59867457	      4.13710732	     -8.27939251	      2.86974311	      2.61843744	      0.05008647	     16.18390023	     19.62626320	     -7.55610479	    -18.62022630	      1.48335926	     -4.41873261	    -14.38552173	    -13.18521501	     11.57533846	     34.98191315	     90.00000001	      0.00000000	      0.00000000	      3.20327532	    -17.72763203	      1.08153924	     46.76095364	     90.00000001	      0.00000000	      0.00000000
      1.20000000	      8.49133250	      0.67896361	     -3.58626445	     -0.19758244	      0.97870256	      0.26994044	     14.05997837	     -4.41250541	     -6.75193297	     31.53726574	      2.08108659	      0.55042912	     14.91008997	     -4.50176856	     -7.55412668	    -17.29261670	      3.77932660	     -7.96676841	      2.39194841	      2.73704933	      0.04174738	     17.11541037	     20.39152674	     -7.55412668	    -19.12437863	      1.79072154	     -4.69334678	    -14.65149538	    -12.72779287	     11.04907003	     34.63206787	     90.00000001	      0.00000000	      0.00000000	      3.93478571	    -18.00821595	      0.88629168	     47.58139558	     90.00000001	      0.00000000	      0.00000000
      1.21000000	      8.57086644	      0.76450264	     -3.46657490	     -0.18386150	      0.97629238	      0.27043951	     14.23756672	     -4.26245821	     -7.04933477	     27.30520321	      2.14073518	      0.47656570	     14.31782132	     -3.73890487	     -7.55195301	    -18.37329127	      3.86847123	     -8.01609967	      2.28069306	      2.74149802	      0.03980560	     17.87022816	     20.86775476	     -7.55195301	    -19.21212006	      1.70598162	     -4.86994523	    -14.98358421	    -12.33682538	     10.69036639	     34.49637152	     90.00000001	      0.00000000	      0.00000000	      4.63173041	    -18.31724196	      0.80277221	     48.28188643	     90.00000001	      0.00000000	      0.00000000
      1.22000000	      8.63448660	      0.96452934	     -3.35837527	     -0.17011770	      0.97355392	      0.27094065	     14.33423221	     -4.26332733	     -7.33968162	     22.97871934	      2.23485418	      0.40105431	     13.72997675	     -2.62112037	     -7.54988526	    -19.40791966	      4.08020438	     -8.02543355	      2.21986999	      2.73291511	      0.03874404	     18.65337298	     21.32715242	     -7.54988526	    -19.27295089	      1.49355416	     -5.08024533	    -15.26736251	    -11.93062096	     10.37445301	     34.33038413	     90.00000001	      0.00000000	      0.00000000	      5.30642871	    -18.61893248	      0.70183881	     48.96109891	     90.00000001	      0.00000000	      0.00000000
      1.23000000	      8.26262068	      1.58410508	     -3.33619622	     -0.15672017	      0.96981738	      0.27120628	     15.11234078	     -4.74387787	     -7.63255122	     19.08202443	      2.29875706	      0.33304415	     12.99471956	     -1.15217664	     -7.54905716	    -19.82069789	      4.86972530	     -7.91177030	      2.31791262	      2.44247962	      0.04045521	     19.43428078	     21.52598864	     -7.54905716	    -18.85779061	      0.85402650	     -5.39238430	    -15.51956656	    -11.58190439	     10.27672025	     34.25779602	     90.00000001	      0.00000000	      0.00000000	      5.92579124	    -18.95283549	      0.62856447	     49.54126923	     90.00000001	      0.00000000	      0.00000000
      1.24000000	      8.76304806	      1.57620065	     -3.13255492	     -0.14239650	      0.96731005	      0.27196053	     14.28130397	     -4.54571862	     -7.91104822	     14.37265198	      2.43998725	      0.25085010	     12.38294596	      0.49691747	     -7.54719172	    -21.43558631	      4.71734846	     -7.89173970	      2.21185909	      2.67539432	      0.03860422	     20.15492134	     22.00879582	     -7.54719172	    -19.36617261	      0.83661862	     -5.60319920	    -15.74745137	    -11.11939683	      9.77062258	     34.02740811	     90.00000001	      0.00000000	      0.00000000	      6.58116993	    -19.21300008	      0.53044477	     50.22437425	     90.00000001	      0.00000000	      0.00000000
      1.25000000	      8.61093544	      2.15698788	     -3.06337027	     -0.12858944	      0.96355017	      0.27230340	     14.55956578	     -5.05564472	     -8.07552715	     10.52494475	      2.64964341	      0.18369494	     11.57711343	      2.25941323	     -7.54602398	    -22.11341801	      5.37086564	     -7.71219953	      2.37850287	      2.54210813	      0.04151271	     20.94327177	     22.27559728	     -7.54602398	    -19.16977591	      0.22751098	     -5.91256814	    -15.93296067	    -10.74266040	      9.57412592	     33.89753823	     90.00000001	      0.00000000	      0.00000000	      7.17024068	    -19.48193211	      0.47464852	     50.74911718	     90.00000001	      0.00000000	      0.00000000
      1.26000000	      8.39746834	      2.72514855	     -2.95540885	     -0.11459773	      0.95961204	      0.27252969	     14.94678365	     -5.61121887	     -8.38711247	      7.15752839	      2.91674990	      0.12492244	     10.75789913	      4.06096030	     -7.54527965	    -22.71893547	      6.03266833	     -7.57644043	      2.56875629	      2.30977289	      0.04483326	     21.63887217	     22.43050618	     -7.54527965	    -18.89436284	     -0.33314139	     -6.25277548	    -16.16094962	    -10.42737773	      9.40757286	     33.86536077	     90.00000001	      0.00000000	      0.00000000	      7.69817697	    -19.72494417	      0.42057234	     51.24370390	     90.00000001	      0.00000000	      0.00000000
      1.27000000	      8.73011488	      2.93905707	     -2.76736263	     -0.10012929	      0.95647542	      0.27323475	     14.55413284	     -5.71837054	     -8.80580714	      3.96485071	      2.99286581	      0.06919970	     10.17863659	      5.98426724	     -7.54385896	    -24.04947368	      6.12298989	     -7.46344742	      2.67094953	      2.41204117	      0.04661686	     22.15475123	     22.74093948	     -7.54385896	    -19.21462377	     -0.57700623	     -6.53808565	    -16.30691600	    -10.01776350	      8.96520739	     33.74198762	     90.00000001	      0.00000000	      0.00000000	      8.22575911	    -19.95918478	      0.38547076	     51.80227403	     90.00000001	      0.00000000	      0.00000000
